<?xml version='1.0' encoding='UTF-8' ?>
<!DOCTYPE svg PUBLIC "-//W3C//DTD SVG 1.1//EN" "http://www.w3.org/Graphics/SVG/1.1/DTD/svg11.dtd" [ 
 <!ATTLIST svg 
                                               xmlns:dsy CDATA #FIXED "http://www.3ds.com/print"  
                                               dsy:text-version CDATA #IMPLIED > 

                                               <!ATTLIST text 
                                               xmlns:dsy CDATA #FIXED "http://www.3ds.com/print" 
                                               dsy:text-version CDATA #IMPLIED > 
                                                ]>
<svg style = "background : rgb(255,255,255)" width = "210mm" xmlns = "http://www.w3.org/2000/svg" height = "297mm" version = "1.1" viewBox = "0 0 210 297" xmlns:dsy = "http://www.3ds.com/print" xmlns:xlink = "http://www.w3.org/1999/xlink" dsy:text-version = "21000"><g fill = "none" stroke = "rgb(255, 0, 0)" stroke-width = "0.13" stroke-linecap = "butt" stroke-linejoin = "miter"><path d = "M 51.5 255.5 L 51.5 260.5"/><path d = "M 51.5 260.5 A 1.0000038 1.0000038 0 0 0 52.500004 261.5"/><path d = "M 65.5 261.5 L 52.5 261.5"/><path d = "M 65.500008 261.5 A 1.0000038 1.0000038 0 0 0 66.500015 260.5"/><path d = "M 66.5 260.5 L 66.5 255.5"/><path d = "M 71.5 57.5 L 71.5 255.5"/><path d = "M 81.500008 47.499985 A 10 10 0 0 0 71.500008 57.499985"/><path d = "M 157.5 47.5 L 81.5 47.5"/><path d = "M 157.5 47.499985 A 6 6 0 0 0 157.5 35.5"/><path d = "M 71.5 255.5 L 66.5 255.5"/><path d = "M 51.5 255.5 L 46.5 255.5"/><path d = "M 56.5 35.5 L 157.5 35.5"/><path d = "M 56.500004 35.5 A 10 10 0 0 0 46.500004 45.499985"/><path d = "M 46.5 255.5 L 46.5 45.5"/><path d = "M 66.5 95.5 L 66.5 92.5"/><path d = "M 66.5 95.5 L 51.5 95.5"/><path d = "M 51.5 92.5 L 51.5 95.5"/><path d = "M 51.5 92.5 L 66.5 92.5"/><path d = "M 66.5 170.5 L 66.5 167.5"/><path d = "M 66.5 170.5 L 51.5 170.5"/><path d = "M 51.5 167.5 L 51.5 170.5"/><path d = "M 51.5 167.5 L 66.5 167.5"/><path d = "M 66.5 245.5 L 66.5 242.5"/><path d = "M 66.5 245.5 L 51.5 245.5"/><path d = "M 51.5 242.5 L 51.5 245.5"/><path d = "M 51.5 242.5 L 66.5 242.5"/><path d = "M 138.20001 40.999969 A 1.7000046 1.7000046 0 0 0 138.20001 44.399963"/><path d = "M 138.2 41 L 154.8 41"/><path d = "M 154.80002 44.399963 A 1.7000046 1.7000046 0 0 0 154.80002 40.999969"/><path d = "M 154.8 44.4 L 138.2 44.4"/><path d = "M 63.200005 40.999969 A 1.7000046 1.7000046 0 0 0 63.200005 44.399963"/><path d = "M 63.2 41 L 79.8 41"/><path d = "M 79.800011 44.399963 A 1.7000046 1.7000046 0 0 0 79.800011 40.999969"/><path d = "M 79.8 44.4 L 63.2 44.4"/><circle r = "3.25" cx = "59.000004" cy = "120.49998"/><circle r = "3.25" cx = "59.000004" cy = "217.5"/></g></svg>
